<?xml version="1.0" standalone="no"?>
<svg xmlns="http://www.w3.org/2000/svg" xmlns:xlink="http://www.w3.org/1999/xlink" width="270pt" height="135pt" viewBox="0.00 0.00 269.73 135.46">
<g id="graph0" class="graph" transform="translate(-0.15488389155373739,124.80689274938021) scale(1)" data-name="round-table">

<polygon fill="white" stroke="none" points="-4,4 -4,-131.46 265.73,-131.46 265.73,4 -4,4"/>
<!-- RH -->
<g id="node1" class="node" pointer-events="visible" data-name="RH">

<ellipse fill="none" stroke="black" cx="54.49" cy="-20.66" rx="54.48" ry="18"/>
<text text-anchor="middle" x="54.49" y="-16.46" font-family="Times,serif" font-size="14.00">Right-hand</text>
</g>
<!-- TL -->
<g id="node2" class="node" pointer-events="visible" data-name="TL">

<ellipse fill="none" stroke="black" cx="92.49" cy="-109.46" rx="57.92" ry="18"/>
<text text-anchor="middle" x="92.49" y="-105.26" font-family="Times,serif" font-size="14.00">Traffic light</text>
</g>
<!-- RH&#45;&gt;TL -->
<g id="edge1" class="edge" data-name="RH-&gt;TL">

<path fill="none" stroke="black" d="M78.8,-37.18C85.09,-42.53 91.06,-49.1 94.49,-56.66 97.94,-64.27 98.63,-73.17 98.1,-81.42"/>
<polygon fill="black" stroke="black" points="94.62,-81.04 96.9,-91.39 101.57,-81.88 94.62,-81.04"/>
<text text-anchor="start" x="98.49" y="-60.86" font-family="Times,serif" font-size="14.00">α</text>
</g>
<!-- RA -->
<g id="node3" class="node" pointer-events="visible" data-name="RA">

<ellipse fill="none" stroke="black" cx="203.49" cy="-20.66" rx="58.49" ry="18"/>
<text text-anchor="middle" x="203.49" y="-16.46" font-family="Times,serif" font-size="14.00">Roundabout</text>
</g>
<!-- RH&#45;&gt;RA -->
<g id="edge4" class="edge" data-name="RH-&gt;RA">

<path fill="none" stroke="black" d="M92.47,-7.73C102.48,-4.89 113.35,-2.3 123.61,-0.86 135.21,0.77 147.57,-0.68 159.02,-3.39"/>
<polygon fill="black" stroke="black" points="158.23,-6.81 168.8,-6.06 160.07,-0.05 158.23,-6.81"/>
<text text-anchor="start" x="123.61" y="-5.06" font-family="Times,serif" font-size="14.00">γ</text>
</g>
<!-- TL&#45;&gt;RH -->
<g id="edge6" class="edge" data-name="TL-&gt;RH">

<path fill="none" stroke="black" d="M81.66,-91.76C78.25,-86.09 74.64,-79.62 71.83,-73.46 68.23,-65.57 64.99,-56.72 62.31,-48.58"/>
<polygon fill="black" stroke="black" points="65.57,-47.29 59.23,-38.8 58.89,-49.39 65.57,-47.29"/>
<text text-anchor="middle" x="81.82" y="-60.86" font-family="Times,serif" font-size="14.00">1-α</text>
</g>
<!-- TL&#45;&gt;RA -->
<g id="edge5" class="edge" data-name="TL-&gt;RA">

<path fill="none" stroke="black" d="M111.68,-92.33C124.13,-81.97 140.78,-68.32 155.83,-56.66 161.39,-52.35 167.39,-47.84 173.19,-43.54"/>
<polygon fill="black" stroke="black" points="175.49,-46.19 181.48,-37.45 171.35,-40.55 175.49,-46.19"/>
<text text-anchor="middle" x="165.82" y="-60.86" font-family="Times,serif" font-size="14.00">1-β</text>
</g>
<!-- RA&#45;&gt;RH -->
<g id="edge3" class="edge" data-name="RA-&gt;RH">

<path fill="none" stroke="black" d="M145.1,-20.66C136.58,-20.66 127.77,-20.66 119.14,-20.66"/>
<polygon fill="black" stroke="black" points="119.12,-17.16 109.12,-20.66 119.12,-24.16 119.12,-17.16"/>
<text text-anchor="middle" x="127.11" y="-27.86" font-family="Times,serif" font-size="14.00">1-γ</text>
</g>
<!-- RA&#45;&gt;TL -->
<g id="edge2" class="edge" data-name="RA-&gt;TL">

<path fill="none" stroke="black" d="M198.69,-39.01C194.83,-50.13 188.39,-64.17 178.49,-73.46 169.21,-82.17 157.49,-88.83 145.7,-93.88"/>
<polygon fill="black" stroke="black" points="144.3,-90.67 136.28,-97.6 146.87,-97.19 144.3,-90.67"/>
<text text-anchor="start" x="190.49" y="-60.86" font-family="Times,serif" font-size="14.00">β</text>
</g>
</g>
</svg>